<svg width="162" height="48" viewBox="0 0 162 48" fill="none" xmlns="http://www.w3.org/2000/svg">
<path d="M160.912 42.3318C160.913 42.936 160.794 43.5344 160.562 44.0925C160.331 44.6506 159.991 45.1574 159.563 45.5838C159.136 46.0113 158.629 46.3502 158.07 46.581C157.512 46.8118 156.913 46.93 156.309 46.9288H5.67699C4.45636 46.9299 3.28525 46.4463 2.42101 45.5843C1.55677 44.7223 1.07011 43.5525 1.06799 42.3318V5.67282C1.06932 4.45123 1.55566 3.28015 2.42012 2.417C3.28458 1.55386 4.4564 1.06929 5.67799 1.06982H156.308C157.529 1.07076 158.699 1.5559 159.563 2.41882C160.426 3.28244 160.911 4.4531 160.911 5.67382L160.912 42.3318Z" fill="white"/>
<path d="M156.309 47.998H5.677C4.17351 47.9972 2.73167 47.4003 1.66751 46.3382C0.603356 45.2761 0.00370557 43.8354 0 42.332L0 5.67395C0.00211884 4.16943 0.601069 2.72721 1.6654 1.66382C2.72973 0.600426 4.17248 0.00274628 5.677 0.00195312H156.308C157.812 0.00432922 159.254 0.602517 160.318 1.66557C161.382 2.72861 161.981 4.16992 161.985 5.67395V42.332C161.988 45.457 159.436 47.998 156.309 47.998Z" fill="#A6A6A6"/>
<path d="M160.912 42.3318C160.913 42.936 160.794 43.5344 160.562 44.0925C160.331 44.6506 159.991 45.1574 159.563 45.5838C159.136 46.0113 158.629 46.3502 158.07 46.581C157.512 46.8118 156.913 46.93 156.309 46.9288H5.67699C4.45636 46.9299 3.28525 46.4463 2.42101 45.5843C1.55677 44.7223 1.07011 43.5525 1.06799 42.3318V5.67282C1.06932 4.45123 1.55566 3.28015 2.42012 2.417C3.28458 1.55386 4.4564 1.06929 5.67799 1.06982H156.308C157.529 1.07076 158.699 1.5559 159.563 2.41882C160.426 3.28244 160.911 4.4531 160.911 5.67382L160.912 42.3318Z" fill="black"/>
<path d="M36.17 23.7469C36.135 19.8789 39.338 17.9969 39.485 17.9099C37.671 15.2649 34.859 14.9039 33.871 14.8749C31.51 14.6269 29.219 16.2879 28.016 16.2879C26.789 16.2879 24.936 14.8989 22.94 14.9399C20.37 14.9799 17.967 16.4669 16.65 18.7759C13.929 23.4849 15.958 30.4039 18.564 34.2099C19.868 36.0749 21.391 38.1549 23.386 38.0819C25.336 38.0019 26.066 36.8399 28.419 36.8399C30.752 36.8399 31.436 38.0819 33.47 38.0349C35.564 38.0029 36.882 36.1629 38.14 34.2819C39.647 32.1469 40.252 30.0419 40.276 29.9329C40.228 29.9169 36.211 28.3829 36.17 23.7469ZM32.328 12.3719C33.378 11.0599 34.096 9.27487 33.896 7.46387C32.378 7.53087 30.478 8.51387 29.385 9.79687C28.417 10.9269 27.553 12.7809 27.775 14.5239C29.482 14.6509 31.234 13.6639 32.328 12.3719Z" fill="white"/>
<path d="M156.309 0.00195312H75.626L107.228 47.998H156.309C157.813 47.9964 159.255 47.3987 160.319 46.3359C161.383 45.2731 161.983 43.8319 161.986 42.328V5.67395C161.983 4.16959 161.384 2.72768 160.32 1.6644C159.256 0.601124 157.813 0.00327459 156.309 0.00195312Z" fill="url(#paint0_linear)"/>
<path d="M64.427 37.8142H61.701L60.208 33.1222H55.016L53.594 37.8142H50.939L56.084 21.8412H59.26L64.427 37.8142ZM59.757 31.1542L58.407 26.9832C58.264 26.5572 57.995 25.5532 57.601 23.9732H57.553C57.395 24.6532 57.141 25.6572 56.794 26.9832L55.467 31.1532H59.757V31.1542ZM77.631 31.9142C77.631 33.8722 77.099 35.4202 76.034 36.5572C75.081 37.5692 73.896 38.0742 72.484 38.0742C70.957 38.0742 69.86 37.5302 69.194 36.4412V42.4842H66.634V30.0822C66.634 28.8522 66.602 27.5902 66.539 26.2962H68.79L68.933 28.1222H68.981C69.835 26.7462 71.131 26.0582 72.869 26.0582C74.228 26.0582 75.362 26.5952 76.269 27.6692C77.176 28.7462 77.631 30.1592 77.631 31.9132V31.9142ZM75.023 32.0072C75.023 30.8862 74.771 29.9622 74.265 29.2332C73.711 28.4762 72.968 28.0962 72.037 28.0962C71.405 28.0962 70.831 28.3082 70.318 28.7242C69.805 29.1442 69.468 29.6932 69.311 30.3722C69.241 30.6262 69.201 30.8882 69.192 31.1522V33.0722C69.192 33.9092 69.449 34.6162 69.963 35.1952C70.477 35.7712 71.144 36.0602 71.966 36.0602C72.93 36.0602 73.68 35.6872 74.216 34.9462C74.755 34.2032 75.024 33.2242 75.024 32.0062L75.023 32.0072ZM90.882 31.9132C90.882 33.8722 90.35 35.4202 89.285 36.5572C88.33 37.5692 87.147 38.0742 85.732 38.0742C84.207 38.0742 83.109 37.5302 82.442 36.4412V42.4842H79.883V30.0822C79.883 28.8522 79.851 27.5902 79.789 26.2962H82.039L82.182 28.1222H82.23C83.083 26.7462 84.378 26.0582 86.118 26.0582C87.476 26.0582 88.61 26.5952 89.52 27.6692C90.425 28.7462 90.882 30.1592 90.882 31.9132ZM88.272 32.0072C88.272 30.8862 88.019 29.9622 87.512 29.2332C86.959 28.4762 86.219 28.0962 85.287 28.0962C84.655 28.0962 84.082 28.3082 83.567 28.7242C83.053 29.1442 82.717 29.6932 82.561 30.3722C82.4911 30.6267 82.4508 30.8884 82.441 31.1522V33.0722C82.441 33.9092 82.699 34.6162 83.21 35.1952C83.724 35.7702 84.391 36.0602 85.215 36.0602C86.18 36.0602 86.93 35.6872 87.466 34.9462C88.004 34.2032 88.273 33.2242 88.273 32.0062L88.272 32.0072ZM105.696 33.3332C105.696 34.6932 105.221 35.7982 104.276 36.6522C103.236 37.5832 101.785 38.0502 99.924 38.0502C98.204 38.0502 96.827 37.7192 95.787 37.0552L96.379 34.9222C97.501 35.5872 98.734 35.9182 100.077 35.9182C101.042 35.9182 101.792 35.7002 102.328 35.2672C102.864 34.8322 103.136 34.2512 103.136 33.5272C103.142 33.2233 103.087 32.9214 102.972 32.6399C102.858 32.3584 102.687 32.1033 102.47 31.8902C102.027 31.4492 101.295 31.0372 100.266 30.6592C97.469 29.6162 96.069 28.0902 96.069 26.0842C96.069 24.7742 96.564 23.7002 97.551 22.8612C98.537 22.0232 99.846 21.6052 101.474 21.6052C102.928 21.6052 104.139 21.8582 105.101 22.3632L104.459 24.4492C103.553 23.9592 102.532 23.7142 101.389 23.7142C100.486 23.7142 99.778 23.9372 99.271 24.3782C99.0662 24.5592 98.9027 24.7822 98.7919 25.0321C98.6811 25.282 98.6256 25.5529 98.629 25.8262C98.629 26.4562 98.875 26.9792 99.365 27.3902C99.79 27.7682 100.565 28.1802 101.686 28.6212C103.062 29.1762 104.073 29.8212 104.72 30.5632C105.372 31.3052 105.696 32.2302 105.696 33.3332ZM114.181 28.2172H111.359V33.8082C111.359 35.2312 111.856 35.9402 112.853 35.9402C113.31 35.9402 113.69 35.9022 113.99 35.8212L114.061 37.7642C113.556 37.9532 112.892 38.0482 112.07 38.0482C111.059 38.0482 110.269 37.7392 109.699 37.1222C109.131 36.5052 108.845 35.4722 108.845 34.0172V28.2122H107.165V26.2922H108.845V24.1822L111.359 23.4242V26.2912H114.181V28.2172ZM126.885 31.9602C126.885 33.7302 126.378 35.1842 125.367 36.3202C124.31 37.4902 122.903 38.0742 121.149 38.0742C119.456 38.0742 118.11 37.5142 117.106 36.3942C116.103 35.2722 115.601 33.8582 115.601 32.1522C115.601 30.3672 116.119 28.9052 117.153 27.7692C118.189 26.6312 119.584 26.0622 121.338 26.0622C123.029 26.0622 124.386 26.6242 125.414 27.7452C126.396 28.8322 126.885 30.2362 126.885 31.9602ZM124.232 32.0192C124.232 30.9642 124.004 30.0592 123.546 29.3022C123.009 28.3872 122.241 27.9302 121.246 27.9302C120.221 27.9302 119.434 28.3872 118.899 29.3022C118.44 30.0592 118.212 30.9802 118.212 32.0672C118.212 33.1232 118.44 34.0312 118.899 34.7852C119.452 35.7002 120.224 36.1572 121.224 36.1572C122.203 36.1572 122.97 35.6902 123.524 34.7632C123.995 33.9872 124.232 33.0762 124.232 32.0192ZM135.208 28.5472C134.942 28.4991 134.672 28.4753 134.401 28.4762C133.501 28.4762 132.805 28.8142 132.315 29.4962C131.89 30.0962 131.676 30.8552 131.676 31.7702V37.8142H129.117V29.9242C129.119 28.7148 129.094 27.5055 129.042 26.2972H131.272L131.365 28.5012H131.436C131.707 27.7442 132.132 27.1332 132.716 26.6752C133.25 26.2756 133.899 26.0592 134.566 26.0582C134.802 26.0582 135.016 26.0752 135.206 26.1052L135.208 28.5472ZM146.655 31.5102C146.662 31.8992 146.631 32.2882 146.562 32.6702H138.883C138.912 33.8082 139.284 34.6802 139.997 35.2802C140.644 35.8152 141.481 36.0842 142.509 36.0842C143.646 36.0842 144.683 35.9042 145.616 35.5402L146.017 37.3162C144.927 37.7912 143.64 38.0272 142.155 38.0272C140.368 38.0272 138.966 37.5012 137.945 36.4522C136.927 35.4022 136.417 33.9912 136.417 32.2222C136.417 30.4872 136.891 29.0422 137.841 27.8882C138.835 26.6562 140.178 26.0402 141.869 26.0402C143.529 26.0402 144.786 26.6562 145.64 27.8882C146.316 28.8632 146.655 30.0732 146.655 31.5102ZM144.215 30.8462C144.233 30.0862 144.065 29.4322 143.718 28.8792C143.275 28.1662 142.593 27.8112 141.679 27.8112C140.842 27.8112 140.16 28.1582 139.642 28.8542C139.216 29.4072 138.962 30.0722 138.884 30.8442L144.215 30.8462ZM54.278 16.1942C53.6634 16.1978 53.0491 16.1667 52.438 16.1012V8.37819C53.154 8.26819 53.879 8.21319 54.605 8.21519C57.54 8.21519 58.892 9.65919 58.892 12.0132C58.892 14.7282 57.295 16.1942 54.278 16.1942ZM54.708 9.20519C54.312 9.20519 53.974 9.22919 53.694 9.28719V15.1572C53.846 15.1812 54.136 15.1922 54.544 15.1922C56.468 15.1922 57.563 14.0982 57.563 12.0482C57.563 10.2202 56.573 9.20519 54.708 9.20519ZM63.104 16.2532C61.45 16.2532 60.378 15.0182 60.378 13.3412C60.378 11.5942 61.473 10.3482 63.198 10.3482C64.828 10.3482 65.924 11.5242 65.924 13.2492C65.924 15.0192 64.794 16.2532 63.104 16.2532ZM63.153 11.2672C62.243 11.2672 61.661 12.1172 61.661 13.3052C61.661 14.4712 62.256 15.3212 63.141 15.3212C64.025 15.3212 64.62 14.4122 64.62 13.2812C64.62 12.1292 64.037 11.2672 63.152 11.2672H63.153ZM75.358 10.4642L73.588 16.1242H72.434L71.7 13.6672C71.5176 13.0659 71.3658 12.4558 71.245 11.8392H71.221C71.129 12.4562 70.954 13.0742 70.767 13.6672L69.987 16.1252H68.822L67.155 10.4652H68.448L69.089 13.1552C69.24 13.7962 69.368 14.4012 69.473 14.9732H69.497C69.59 14.4962 69.741 13.9012 69.963 13.1672L70.768 10.4662H71.793L72.563 13.1102C72.748 13.7502 72.9 14.3802 73.017 14.9742H73.051C73.133 14.3922 73.261 13.7742 73.435 13.1102L74.123 10.4662L75.358 10.4642ZM81.878 16.1242H80.619V12.8742C80.619 11.8742 80.235 11.3722 79.478 11.3722C78.732 11.3722 78.219 12.0122 78.219 12.7582V16.1252H76.961V12.0822C76.961 11.5822 76.949 11.0452 76.914 10.4632H78.021L78.081 11.3372H78.115C78.454 10.7322 79.14 10.3482 79.91 10.3482C81.098 10.3482 81.879 11.2572 81.879 12.7352L81.877 16.1252L81.878 16.1242ZM85.347 16.1242H84.087V7.86819H85.347V16.1262V16.1242ZM89.934 16.2542C88.281 16.2542 87.208 15.0182 87.208 13.3412C87.208 11.5942 88.303 10.3482 90.027 10.3482C91.658 10.3482 92.753 11.5242 92.753 13.2492C92.754 15.0192 91.623 16.2532 89.934 16.2532V16.2542ZM89.981 11.2672C89.072 11.2672 88.49 12.1172 88.49 13.3052C88.49 14.4712 89.086 15.3212 89.968 15.3212C90.854 15.3212 91.447 14.4122 91.447 13.2812C91.448 12.1292 90.867 11.2672 89.981 11.2672ZM97.714 16.1252L97.623 15.4732H97.589C97.205 15.9972 96.644 16.2532 95.933 16.2532C94.919 16.2532 94.199 15.5432 94.199 14.5872C94.199 13.1902 95.41 12.4672 97.507 12.4672V12.3632C97.507 11.6182 97.112 11.2452 96.332 11.2452C95.8084 11.236 95.2937 11.3821 94.853 11.6652L94.597 10.8382C95.121 10.5112 95.774 10.3482 96.541 10.3482C98.02 10.3482 98.767 11.1282 98.767 12.6902V14.7752C98.767 15.3452 98.792 15.7892 98.848 16.1262L97.714 16.1252ZM97.541 13.3052C96.144 13.3052 95.442 13.6442 95.442 14.4472C95.442 15.0412 95.804 15.3312 96.306 15.3312C96.946 15.3312 97.541 14.8432 97.541 14.1792V13.3052ZM104.876 16.1252L104.818 15.2162H104.783C104.421 15.9032 103.814 16.2532 102.965 16.2532C101.6 16.2532 100.589 15.0532 100.589 13.3642C100.589 11.5942 101.637 10.3472 103.068 10.3472C103.826 10.3472 104.363 10.6022 104.665 11.1172H104.69V7.86719H105.95V14.6002C105.95 15.1482 105.963 15.6602 105.996 16.1262H104.876V16.1252ZM104.69 12.7952C104.69 12.0022 104.166 11.3262 103.365 11.3262C102.432 11.3262 101.862 12.1532 101.862 13.3172C101.862 14.4592 102.454 15.2402 103.34 15.2402C104.131 15.2402 104.69 14.5522 104.69 13.7382V12.7942V12.7952ZM113.934 16.2532C112.281 16.2532 111.209 15.0182 111.209 13.3412C111.209 11.5942 112.304 10.3482 114.028 10.3482C115.66 10.3482 116.755 11.5242 116.755 13.2492C116.756 15.0192 115.626 16.2532 113.934 16.2532ZM113.981 11.2672C113.074 11.2672 112.491 12.1172 112.491 13.3052C112.491 14.4712 113.086 15.3212 113.969 15.3212C114.855 15.3212 115.448 14.4122 115.448 13.2812C115.451 12.1292 114.869 11.2672 113.981 11.2672ZM123.521 16.1252H122.261V12.8752C122.261 11.8742 121.877 11.3722 121.12 11.3722C120.374 11.3722 119.863 12.0122 119.863 12.7582V16.1252H118.603V12.0822C118.603 11.5822 118.591 11.0452 118.557 10.4632H119.664L119.722 11.3372H119.757C120.094 10.7322 120.782 10.3472 121.551 10.3472C122.739 10.3472 123.521 11.2552 123.521 12.7342V16.1242V16.1252ZM131.986 11.4082H130.602V14.1562C130.602 14.8562 130.844 15.2062 131.334 15.2062C131.556 15.2062 131.742 15.1812 131.892 15.1462L131.927 16.1022C131.683 16.1962 131.357 16.2422 130.951 16.2422C129.959 16.2422 129.366 15.6952 129.366 14.2622V11.4082H128.54V10.4642H129.366V9.42719L130.602 9.05419V10.4642H131.986V11.4082ZM138.647 16.1252H137.39V12.8992C137.39 11.8862 137.007 11.3732 136.248 11.3732C135.596 11.3732 134.989 11.8162 134.989 12.7132V16.1252H133.732V7.86719H134.989V11.2672H135.014C135.41 10.6502 135.984 10.3472 136.716 10.3472C137.914 10.3472 138.647 11.2782 138.647 12.7582V16.1252ZM145.47 13.5972H141.695C141.719 14.6692 142.428 15.2742 143.479 15.2742C144.037 15.2742 144.551 15.1802 145.005 15.0062L145.2 15.8802C144.665 16.1132 144.035 16.2302 143.301 16.2302C141.53 16.2302 140.482 15.1102 140.482 13.3762C140.482 11.6412 141.556 10.3362 143.159 10.3362C144.606 10.3362 145.514 11.4082 145.514 13.0272C145.522 13.2182 145.507 13.4092 145.47 13.5972ZM144.317 12.7012C144.317 11.8272 143.876 11.2102 143.072 11.2102C142.349 11.2102 141.778 11.8392 141.696 12.7002H144.317V12.7012Z" fill="white"/>
<defs>
<linearGradient id="paint0_linear" x1="118.805" y1="48.125" x2="118.805" y2="-124.971" gradientUnits="userSpaceOnUse">
<stop stop-color="#1A1A1A" stop-opacity="0.1"/>
<stop offset="0.123" stop-color="#212121" stop-opacity="0.151"/>
<stop offset="0.308" stop-color="#353535" stop-opacity="0.227"/>
<stop offset="0.532" stop-color="#575757" stop-opacity="0.318"/>
<stop offset="0.783" stop-color="#858585" stop-opacity="0.421"/>
<stop offset="1" stop-color="#B3B3B3" stop-opacity="0.51"/>
</linearGradient>
</defs>
</svg>
