<svg width="127" height="89" viewBox="0 0 127 89" fill="none" xmlns="http://www.w3.org/2000/svg">
<path d="M103.344 85.3361C103.925 85.9265 104.874 85.9342 105.465 85.3531L115.087 75.8843C115.678 75.3033 115.685 74.3535 115.104 73.7631C114.523 73.1726 113.574 73.1649 112.983 73.746L104.43 82.1627L96.0131 73.6094C95.4321 73.0189 94.4824 73.0113 93.8919 73.5924C93.3014 74.1734 93.2937 75.1231 93.8748 75.7136L103.344 85.3361ZM8.00455 25.1289C32.6945 25.3003 51.0029 26.5316 64.5791 28.9228C78.1711 31.3168 86.8634 34.8483 92.4624 39.4999C98.0026 44.1027 100.665 49.9301 101.92 57.3036C103.189 64.7557 102.998 73.628 102.913 84.2719L105.913 84.296C105.997 73.7829 106.202 64.5806 104.878 56.8002C103.54 48.9412 100.622 42.3783 94.3795 37.1924C88.1962 32.0553 78.9051 28.3999 65.0995 25.9683C51.2781 23.5339 32.7746 22.3008 8.02538 22.129L8.00455 25.1289Z" fill="black"/>
</svg>
