<svg width="127" height="89" viewBox="0 0 127 89" fill="none" xmlns="http://www.w3.org/2000/svg">
<path d="M24.1276 85.2487C23.546 85.8386 22.5963 85.8453 22.0064 85.2637L12.3931 75.7856C11.8032 75.2039 11.7965 74.2542 12.3781 73.6643C12.9597 73.0744 13.9094 73.0677 14.4994 73.6493L23.0445 82.0743L31.4695 73.5292C32.0511 72.9392 33.0008 72.9325 33.5908 73.5141C34.1807 74.0958 34.1874 75.0455 33.6058 75.6354L24.1276 85.2487ZM119.485 25.0735C94.8057 25.2688 76.5043 26.5154 62.9318 28.9149C49.3434 31.3173 40.6508 34.85 35.0492 39.4979C29.5064 44.097 26.8396 49.915 25.5779 57.2733C24.3027 64.7105 24.4843 73.5633 24.5595 84.1849L21.5595 84.2062C21.4853 73.7155 21.2895 64.5321 22.6211 56.7663C23.9661 48.9216 26.8899 42.3698 33.1335 37.1892C39.3183 32.0575 48.608 28.4007 62.4095 25.9607C76.2267 23.518 94.7228 22.2694 119.461 22.0736L119.485 25.0735Z" fill="black"/>
</svg>
