<svg width="162" height="48" viewBox="0 0 162 48" fill="none" xmlns="http://www.w3.org/2000/svg">
<path fill-rule="evenodd" clip-rule="evenodd" d="M155.945 47.983H5.998C2.639 47.983 0 45.344 0 41.985V5.998C0 2.639 2.64 0 5.998 0H155.945C159.304 0 161.943 2.64 161.943 5.998V41.985C161.943 45.345 159.304 47.983 155.945 47.983Z" fill="black"/>
<path d="M155.945 0.96C158.704 0.96 160.984 3.239 160.984 5.998V41.985C160.984 44.745 158.704 47.023 155.945 47.023H5.998C3.238 47.023 0.96 44.744 0.96 41.985V5.998C0.96 3.238 3.239 0.96 5.998 0.96H155.945ZM155.945 0H5.998C2.639 0 0 2.759 0 5.998V41.985C0 45.345 2.64 47.983 5.998 47.983H155.945C159.304 47.983 161.943 45.344 161.943 41.985V5.998C161.943 2.759 159.304 0 155.945 0Z" fill="#A6A6A6"/>
<path d="M56.86 12.2359C56.86 13.1959 56.62 14.0349 56.02 14.6349C55.3 15.3549 54.46 15.7149 53.381 15.7149C52.301 15.7149 51.462 15.3549 50.742 14.6349C50.022 13.9149 49.662 13.0749 49.662 11.9949C49.662 10.9149 50.022 10.0759 50.742 9.35588C51.462 8.63588 52.302 8.27588 53.382 8.27588C53.862 8.27588 54.341 8.39588 54.821 8.63588C55.301 8.87588 55.661 9.11588 55.901 9.47588L55.301 10.0759C54.821 9.47588 54.221 9.23588 53.381 9.23588C52.661 9.23588 51.941 9.47588 51.462 10.0759C50.862 10.5559 50.622 11.2759 50.622 12.1159C50.622 12.9559 50.862 13.6749 51.462 14.1549C52.062 14.6349 52.662 14.9949 53.382 14.9949C54.221 14.9949 54.821 14.7549 55.421 14.1549C55.781 13.7949 56.021 13.3149 56.021 12.7149H53.381V11.7549H56.861V12.2349L56.86 12.2359ZM62.378 9.23588H59.14V11.5159H62.14V12.3559H59.14V14.6349H62.38V15.5949H58.18V8.39588H62.38V9.23588H62.378ZM66.337 15.5939H65.377V9.23688H63.337V8.39688H68.376V9.23688H66.336V15.5939H66.337ZM71.855 15.5939V8.39688H72.815V15.5939H71.855ZM76.893 15.5939H75.933V9.23688H73.894V8.39688H78.812V9.23688H76.773V15.5939H76.893ZM88.289 14.6339C87.569 15.3539 86.729 15.7139 85.65 15.7139C84.57 15.7139 83.73 15.3539 83.01 14.6339C82.291 13.9139 81.931 13.0749 81.931 11.9959C81.931 10.9159 82.291 10.0759 83.011 9.35588C83.731 8.63588 84.571 8.27588 85.65 8.27588C86.73 8.27588 87.57 8.63588 88.29 9.35588C89.009 10.0759 89.369 10.9159 89.369 11.9959C89.369 13.0759 89.009 13.9149 88.289 14.6349V14.6339ZM83.731 14.0339C84.211 14.5139 84.931 14.8739 85.65 14.8739C86.37 14.8739 87.09 14.6339 87.57 14.0339C88.05 13.5549 88.409 12.8349 88.409 11.9959C88.409 11.1559 88.169 10.4359 87.569 9.95588C87.089 9.47588 86.369 9.11588 85.65 9.11588C84.93 9.11588 84.21 9.35588 83.73 9.95588C83.25 10.4359 82.891 11.1559 82.891 11.9959C82.891 12.8359 83.131 13.5549 83.731 14.0349V14.0339ZM90.688 15.5939V8.39688H91.768L95.247 14.0349V8.39688H96.207V15.5939H95.247L91.527 9.71588V15.5939H90.688ZM81.691 26.1499C78.812 26.1499 76.533 28.3099 76.533 31.3089C76.5279 31.9876 76.6579 32.6606 76.9153 33.2887C77.1728 33.9168 77.5525 34.4874 78.0325 34.9674C78.5125 35.4474 79.0831 35.8271 79.7112 36.0845C80.3392 36.342 81.0122 36.4719 81.691 36.4669C84.571 36.4669 86.85 34.3069 86.85 31.3089C86.85 28.1899 84.57 26.1509 81.691 26.1509V26.1499ZM81.691 34.3079C80.132 34.3079 78.812 32.9879 78.812 31.1879C78.812 29.3899 80.132 28.0699 81.692 28.0699C83.251 28.0699 84.57 29.2699 84.57 31.1889C84.57 32.9889 83.25 34.3079 81.691 34.3079ZM70.535 26.1499C67.656 26.1499 65.377 28.3089 65.377 31.3079C65.372 31.9866 65.5019 32.6596 65.7593 33.2877C66.0168 33.9158 66.3965 34.4864 66.8765 34.9664C67.3565 35.4464 67.9271 35.8261 68.5552 36.0835C69.1832 36.341 69.8562 36.4709 70.535 36.4659C73.415 36.4659 75.694 34.3059 75.694 31.3079C75.694 28.1889 73.414 26.1499 70.535 26.1499ZM70.535 34.3069C68.975 34.3069 67.656 32.9869 67.656 31.1869C67.656 29.3889 68.976 28.0689 70.536 28.0689C72.095 28.0689 73.414 29.2689 73.414 31.1879C73.414 32.9879 72.094 34.3069 70.535 34.3069ZM57.22 27.7099V29.8699H62.378C62.258 31.0689 61.778 32.0289 61.178 32.6279C60.458 33.3479 59.259 34.1879 57.22 34.1879C53.981 34.1879 51.582 31.6679 51.582 28.4299C51.582 25.1909 54.102 22.6719 57.22 22.6719C58.9 22.6719 60.219 23.3919 61.179 24.2319L62.738 22.6719C61.418 21.4719 59.739 20.5119 57.34 20.5119C53.021 20.5119 49.303 24.1119 49.303 28.4299C49.303 32.7479 53.021 36.3469 57.34 36.3469C59.74 36.3469 61.418 35.6269 62.858 34.0669C64.298 32.6279 64.778 30.5889 64.778 29.0299C64.778 28.5499 64.778 28.0699 64.658 27.7099H57.22ZM111.681 29.3899C111.201 28.1899 110.002 26.1499 107.362 26.1499C104.723 26.1499 102.564 28.1899 102.564 31.3089C102.564 34.1879 104.723 36.4669 107.602 36.4669C109.882 36.4669 111.321 35.0269 111.801 34.1869L110.121 32.9879C109.522 33.8279 108.802 34.4279 107.602 34.4279C106.403 34.4279 105.683 33.9479 105.083 32.8679L111.921 29.9889L111.681 29.3889V29.3899ZM104.723 31.0689C104.723 29.1489 106.283 28.0699 107.362 28.0699C108.202 28.0699 109.042 28.5499 109.282 29.1499L104.723 31.0689ZM99.085 35.9869H101.365V20.9919H99.085V35.9869ZM95.487 27.2299C94.887 26.6299 93.927 26.0299 92.727 26.0299C90.208 26.0299 87.809 28.3099 87.809 31.1889C87.809 34.0679 90.089 36.2269 92.728 36.2269C93.928 36.2269 94.887 35.6269 95.367 35.0269H95.487V35.7469C95.487 37.6669 94.407 38.7469 92.727 38.7469C91.408 38.7469 90.448 37.7869 90.208 36.9469L88.289 37.7869C88.889 39.1069 90.329 40.7859 92.847 40.7859C95.487 40.7859 97.646 39.2259 97.646 35.5069V26.3909H95.486V27.2309L95.487 27.2299ZM92.847 34.3079C91.288 34.3079 89.969 32.9879 89.969 31.1879C89.969 29.3899 91.289 28.0699 92.848 28.0699C94.407 28.0699 95.606 29.3899 95.606 31.1889C95.606 32.9889 94.407 34.3079 92.848 34.3079H92.847ZM122.117 20.9919H116.719V35.9869H118.998V30.3499H122.117C124.636 30.3499 127.036 28.5499 127.036 25.6719C127.036 22.7919 124.636 20.9939 122.117 20.9939V20.9919ZM122.237 28.1899H118.998V23.0319H122.237C123.917 23.0319 124.876 24.4719 124.876 25.5509C124.756 26.8709 123.797 28.1899 122.237 28.1899ZM136.032 26.0299C134.353 26.0299 132.674 26.7499 132.074 28.3099L134.113 29.1499C134.593 28.3099 135.313 28.0699 136.152 28.0699C137.352 28.0699 138.432 28.7899 138.552 29.9899V30.1099C138.192 29.8699 137.232 29.5099 136.272 29.5099C134.113 29.5099 131.954 30.7099 131.954 32.8679C131.954 34.9079 133.753 36.2279 135.673 36.2279C137.232 36.2279 137.952 35.5079 138.552 34.7879H138.671V35.9879H140.831V30.2289C140.591 27.5899 138.552 26.0309 136.032 26.0309V26.0299ZM135.792 34.3079C135.073 34.3079 133.993 33.9479 133.993 32.9879C133.993 31.7879 135.313 31.4279 136.392 31.4279C137.352 31.4279 137.832 31.6679 138.432 31.9079C138.192 33.3479 136.992 34.3079 135.792 34.3079ZM148.388 26.3909L145.869 32.8679H145.749L143.11 26.3909H140.711L144.669 35.5069L142.39 40.5459H144.669L150.787 26.3909H148.388ZM128.235 35.9869H130.514V20.9919H128.235V35.9869Z" fill="white"/>
<path fill-rule="evenodd" clip-rule="evenodd" d="M12.476 8.99707C12.116 9.35707 11.996 9.95707 11.996 10.6761V37.1861C11.996 37.9061 12.236 38.5061 12.596 38.8661L12.716 38.9861L27.59 24.1111V23.8711L12.476 8.99707Z" fill="url(#paint0_linear)"/>
<path fill-rule="evenodd" clip-rule="evenodd" d="M32.389 29.1501L27.47 24.2321V23.8721L32.389 18.9541L32.509 19.0741L38.387 22.4321C40.067 23.3921 40.067 24.9521 38.387 25.9121L32.389 29.1501Z" fill="url(#paint1_linear)"/>
<path fill-rule="evenodd" clip-rule="evenodd" d="M32.509 29.0302L27.471 23.9922L12.476 38.9862C13.076 39.5862 13.916 39.5862 14.995 39.1062L32.509 29.0302Z" fill="url(#paint2_linear)"/>
<path fill-rule="evenodd" clip-rule="evenodd" d="M32.509 18.953L14.995 8.99701C13.915 8.39701 13.075 8.51701 12.475 9.11701L27.471 23.992L32.509 18.953Z" fill="url(#paint3_linear)"/>
<path opacity="0.2" fill-rule="evenodd" clip-rule="evenodd" d="M32.389 28.9102L14.995 38.7472C14.035 39.3472 13.195 39.2272 12.595 38.7472L12.475 38.8672L12.595 38.9872C13.195 39.4672 14.035 39.5872 14.995 38.9872L32.389 28.9102Z" fill="black"/>
<path opacity="0.12" d="M12.476 38.7472C12.116 38.3872 11.996 37.7872 11.996 37.0672V37.1872C11.996 37.9072 12.236 38.5072 12.596 38.8672V38.7472H12.476ZM38.386 25.5512L32.39 28.9102L32.51 29.0302L38.388 25.6712C39.228 25.1912 39.588 24.5912 39.588 23.9912C39.588 24.5912 39.108 25.0712 38.388 25.5512H38.386Z" fill="black"/>
<path opacity="0.25" fill-rule="evenodd" clip-rule="evenodd" d="M14.995 9.1171L38.387 22.4321C39.107 22.9121 39.587 23.3921 39.587 23.9921C39.587 23.3921 39.227 22.7921 38.387 22.3121L14.995 8.9971C13.315 8.0371 11.995 8.7571 11.995 10.6771V10.7971C11.995 8.9971 13.315 8.1571 14.995 9.1171Z" fill="white"/>
<defs>
<linearGradient id="paint0_linear" x1="26.151" y1="10.4481" x2="2.318" y2="16.8921" gradientUnits="userSpaceOnUse">
<stop stop-color="#00A0FF"/>
<stop offset="0.007" stop-color="#00A1FF"/>
<stop offset="0.26" stop-color="#00BEFF"/>
<stop offset="0.512" stop-color="#00D2FF"/>
<stop offset="0.76" stop-color="#00DFFF"/>
<stop offset="1" stop-color="#00E3FF"/>
</linearGradient>
<linearGradient id="paint1_linear" x1="40.587" y1="23.9931" x2="11.56" y2="23.9931" gradientUnits="userSpaceOnUse">
<stop stop-color="#FFE000"/>
<stop offset="0.409" stop-color="#FFBD00"/>
<stop offset="0.775" stop-color="#FFA500"/>
<stop offset="1" stop-color="#FF9C00"/>
</linearGradient>
<linearGradient id="paint2_linear" x1="29.782" y1="26.7462" x2="10.63" y2="58.9002" gradientUnits="userSpaceOnUse">
<stop stop-color="#FF3A44"/>
<stop offset="1" stop-color="#C31162"/>
</linearGradient>
<linearGradient id="paint3_linear" x1="8.75301" y1="0.211009" x2="17.238" y2="14.59" gradientUnits="userSpaceOnUse">
<stop stop-color="#32A071"/>
<stop offset="0.069" stop-color="#2DA771"/>
<stop offset="0.476" stop-color="#15CF74"/>
<stop offset="0.801" stop-color="#06E775"/>
<stop offset="1" stop-color="#00F076"/>
</linearGradient>
</defs>
</svg>
